<svg viewBox="0 0 24 24" xmlns="http://www.w3.org/2000/svg">
<path fill-rule="evenodd" clip-rule="evenodd" d="M24 12C24 18.6274 18.6274 24 12 24C5.37258 24 0 18.6274 0 12C0 5.37258 5.37258 0 12 0C18.6274 0 24 5.37258 24 12ZM17.634 9.468C17.634 13.29 14.724 17.7 9.40199 17.7C7.76999 17.7 6.24599 17.22 4.97999 16.392C5.20799 16.422 5.43599 16.434 5.66999 16.434C7.02599 16.434 8.27399 15.972 9.26399 15.198C7.99799 15.174 6.92999 14.34 6.56399 13.188C6.74399 13.224 6.92399 13.242 7.10999 13.242C7.37399 13.242 7.63199 13.206 7.87199 13.14C6.54599 12.87 5.54999 11.706 5.54999 10.302V10.266C5.93999 10.482 6.38399 10.614 6.85799 10.626C6.07799 10.11 5.56799 9.222 5.56799 8.22C5.56799 7.692 5.71199 7.194 5.95799 6.768C7.38599 8.52 9.51599 9.672 11.922 9.792C11.868 9.582 11.844 9.36 11.844 9.132C11.844 7.536 13.14 6.24 14.736 6.24C15.57 6.24 16.32 6.588 16.848 7.152C17.508 7.02 18.126 6.78 18.684 6.45C18.468 7.128 18.012 7.692 17.412 8.052C18 7.98 18.558 7.824 19.074 7.596C18.684 8.178 18.192 8.688 17.628 9.096C17.634 9.216 17.634 9.342 17.634 9.468Z" fill="#1B9DF0"/>
</svg>
